# xmcd CD Database Entry
#
# Track frame offsets:
# 150
# 17121
# 32258
# 51542
# 67558
# 85250
# 99586
# 117092
# 134299
# 153343
#
# Disc length: 2291 seconds
#
# Revision: 2
# Processed by: cddbd v1.4b41PL1 Copyright (c) Steve Scherf et al.
# Submitted via: tcd 2.0b
#
DISCID=7308f10a
DTITLE=Amaury Gutierrez - Amaury Gutierrez
DYEAR=1900
DGENRE=
TTITLE0=Ella prefiere
TTITLE1=Perdoname todo
TTITLE2=Yo se que es mentira
TTITLE3=Amor de una noche
TTITLE4=Encuentro
TTITLE5=La soledad de esa mujer
TTITLE6=Debajo de tu piel
TTITLE7=Fascinación
TTITLE8=Se me escapa el alma
TTITLE9=Diferencias
EXTD=
EXTT0=
EXTT1=
EXTT2=
EXTT3=
EXTT4=
EXTT5=
EXTT6=
EXTT7=
EXTT8=
EXTT9=
PLAYORDER=
